REM DIRINDEX 1\2\5,1\2\6,1\2\7,1\2\8,1\3\9,1\3\10,1\3\11,1\4\12,1\4\13,1\4\14,1\4\15,1\4\16
REM DIRNAME cjc034,folder01,folder02,folder03,folder04,folder05,folder06,folder07,folder08,folder09,folder10,folder11,folder12,folder13,folder14,folder15
TITLE ""
FILE "1200_sec03_0986_0992.mp3" MP3
  TRACK 01 AUDIO
    TITLE "0:"
    INDEX 01 00:00:00
  TRACK 02 AUDIO
    TITLE "16:cjc034_07624"
    INDEX 01 00:00:19
  TRACK 03 AUDIO
    TITLE "0:"
    INDEX 01 00:05:38
  TRACK 04 AUDIO
    TITLE "12:cjc034_07625"
    INDEX 01 00:06:37
  TRACK 05 AUDIO
    TITLE "0:"
    INDEX 01 00:07:68
  TRACK 06 AUDIO
    TITLE "13:cjc034_07626"
    INDEX 01 00:08:26
  TRACK 07 AUDIO
    TITLE "0:"
    INDEX 01 00:10:51
  TRACK 08 AUDIO
    TITLE "14:cjc034_07627"
    INDEX 01 00:11:11
  TRACK 09 AUDIO
    TITLE "0:"
    INDEX 01 00:12:40
  TRACK 10 AUDIO
    TITLE "15:cjc034_07628"
    INDEX 01 00:13:00
  TRACK 11 AUDIO
    TITLE "0:"
    INDEX 01 00:16:44
  TRACK 12 AUDIO
    TITLE "12:cjc034_07629"
    INDEX 01 00:18:01
  TRACK 13 AUDIO
    TITLE "0:"
    INDEX 01 00:19:50
  TRACK 14 AUDIO
    TITLE "13:cjc034_07630"
    INDEX 01 00:20:10
  TRACK 15 AUDIO
    TITLE "0:"
    INDEX 01 00:23:22
  TRACK 16 AUDIO
    TITLE "14:cjc034_07631"
    INDEX 01 00:23:51
  TRACK 17 AUDIO
    TITLE "0:"
    INDEX 01 00:25:25
  TRACK 18 AUDIO
    TITLE "15:cjc034_07632"
    INDEX 01 00:25:60
  TRACK 19 AUDIO
    TITLE "0:"
    INDEX 01 00:30:65
  TRACK 20 AUDIO
    TITLE "12:cjc034_07633"
    INDEX 01 00:32:23
  TRACK 21 AUDIO
    TITLE "0:"
    INDEX 01 00:34:06
  TRACK 22 AUDIO
    TITLE "13:cjc034_07634"
    INDEX 01 00:34:40
  TRACK 23 AUDIO
    TITLE "0:"
    INDEX 01 00:36:58
  TRACK 24 AUDIO
    TITLE "14:cjc034_07635"
    INDEX 01 00:37:18
  TRACK 25 AUDIO
    TITLE "0:"
    INDEX 01 00:39:00
  TRACK 26 AUDIO
    TITLE "15:cjc034_07636"
    INDEX 01 00:39:33
  TRACK 27 AUDIO
    TITLE "0:"
    INDEX 01 00:44:69
  TRACK 28 AUDIO
    TITLE "12:cjc034_07637"
    INDEX 01 00:46:27
  TRACK 29 AUDIO
    TITLE "0:"
    INDEX 01 00:47:32
  TRACK 30 AUDIO
    TITLE "13:cjc034_07638"
    INDEX 01 00:47:68
  TRACK 31 AUDIO
    TITLE "0:"
    INDEX 01 00:49:29
  TRACK 32 AUDIO
    TITLE "14:cjc034_07639"
    INDEX 01 00:49:61
  TRACK 33 AUDIO
    TITLE "0:"
    INDEX 01 00:50:68
  TRACK 34 AUDIO
    TITLE "15:cjc034_07640"
    INDEX 01 00:51:26
  TRACK 35 AUDIO
    TITLE "0:"
    INDEX 01 00:56:29
  TRACK 36 AUDIO
    TITLE "12:cjc034_07641"
    INDEX 01 00:57:64
  TRACK 37 AUDIO
    TITLE "0:"
    INDEX 01 00:58:73
  TRACK 38 AUDIO
    TITLE "13:cjc034_07642"
    INDEX 01 00:59:34
  TRACK 39 AUDIO
    TITLE "0:"
    INDEX 01 01:01:44
  TRACK 40 AUDIO
    TITLE "14:cjc034_07643"
    INDEX 01 01:02:01
  TRACK 41 AUDIO
    TITLE "0:"
    INDEX 01 01:03:08
  TRACK 42 AUDIO
    TITLE "15:cjc034_07644"
    INDEX 01 01:03:43
  TRACK 43 AUDIO
    TITLE "0:"
    INDEX 01 01:07:45
  TRACK 44 AUDIO
    TITLE "12:cjc034_07645"
    INDEX 01 01:09:05
  TRACK 45 AUDIO
    TITLE "0:"
    INDEX 01 01:10:26
  TRACK 46 AUDIO
    TITLE "13:cjc034_07646"
    INDEX 01 01:10:57
  TRACK 47 AUDIO
    TITLE "0:"
    INDEX 01 01:13:16
  TRACK 48 AUDIO
    TITLE "14:cjc034_07647"
    INDEX 01 01:13:49
  TRACK 49 AUDIO
    TITLE "0:"
    INDEX 01 01:14:72
  TRACK 50 AUDIO
    TITLE "15:cjc034_07648"
    INDEX 01 01:15:31
  TRACK 51 AUDIO
    TITLE "0:"
    INDEX 01 01:19:52
  TRACK 52 AUDIO
    TITLE "12:cjc034_07649"
    INDEX 01 01:21:10
  TRACK 53 AUDIO
    TITLE "0:"
    INDEX 01 01:22:37
  TRACK 54 AUDIO
    TITLE "13:cjc034_07650"
    INDEX 01 01:22:72
  TRACK 55 AUDIO
    TITLE "0:"
    INDEX 01 01:24:26
  TRACK 56 AUDIO
    TITLE "14:cjc034_07651"
    INDEX 01 01:24:61
  TRACK 57 AUDIO
    TITLE "0:"
    INDEX 01 01:26:13
  TRACK 58 AUDIO
    TITLE "15:cjc034_07652"
    INDEX 01 01:26:48
  TRACK 59 AUDIO
    TITLE "0:"
    INDEX 01 01:33:13
